  0
SECTION
  2
HEADER
  9
$ACADVER
  1
AC1006
  9
$EXTMIN
 10
0.000000
 20
0.000000
 30
0.000000
  9
$EXTMAX
 10
2000.000000
 20
1414.000000
 30
0.000000
  0
ENDSEC
  0
SECTION
  2
ENTITIES
  0
POLYLINE
  8
0
 66
1
 70
1
  0
VERTEX
  8
0
 10
1788.750000
 20
1306.283746
 42
0.022824
  0
VERTEX
  8
0
 10
1787.695955
 20
1306.074483
 42
0.034567
  0
VERTEX
  8
0
 10
1786.806123
 20
1305.788728
 42
0.037459
  0
VERTEX
  8
0
 10
1786.162398
 20
1305.474015
 42
0.264088
  0
VERTEX
  8
0
 10
1785.994247
 20
1305.183578
 42
0.027661
  0
VERTEX
  8
0
 10
1786.020543
 20
1304.623210
 42
0.000001
  0
VERTEX
  8
0
 10
1793.645446
 20
1230.275727
 42
0.000046
  0
VERTEX
  8
0
 10
1802.056723
 20
1148.336541
 42
0.000028
  0
VERTEX
  8
0
 10
1812.048961
 20
1051.138047
 42
-0.000152
  0
VERTEX
  8
0
 10
1822.014679
 20
953.960362
 42
-0.000253
  0
VERTEX
  8
0
 10
1830.343552
 20
872.090554
 42
-0.000003
  0
VERTEX
  8
0
 10
1837.865689
 20
797.772320
 42
-0.225264
  0
VERTEX
  8
0
 10
1837.732871
 20
797.399537
 42
-0.275863
  0
VERTEX
  8
0
 10
1837.368128
 20
797.307544
 42
-0.000003
  0
VERTEX
  8
0
 10
1760.672406
 20
820.301668
 42
-0.000268
  0
VERTEX
  8
0
 10
1676.199181
 20
845.677566
 42
-0.000161
  0
VERTEX
  8
0
 10
1575.928157
 20
875.893020
 42
0.000055
  0
VERTEX
  8
0
 10
1475.512447
 20
906.175315
 42
0.000090
  0
VERTEX
  8
0
 10
1390.560146
 20
931.767396
 42
0.000005
  0
VERTEX
  8
0
 10
1314.018487
 20
954.809786
 42
0.015453
  0
VERTEX
  8
0
 10
1312.000000
 20
955.349990
 42
-0.111971
  0
VERTEX
  8
0
 10
1310.170416
 20
956.241936
 42
-0.000046
  0
VERTEX
  8
0
 10
1254.617303
 20
1000.864399
 42
-0.000707
  0
VERTEX
  8
0
 10
1192.939108
 20
1050.559783
 42
-0.000430
  0
VERTEX
  8
0
 10
1120.165286
 20
1109.468460
 42
0.000170
  0
VERTEX
  8
0
 10
1047.518339
 20
1168.336842
 42
0.000283
  0
VERTEX
  8
0
 10
986.252216
 20
1217.890879
 42
0.000005
  0
VERTEX
  8
0
 10
930.651551
 20
1262.809503
 42
0.183705
  0
VERTEX
  8
0
 10
930.165286
 20
1262.968575
 42
0.216299
  0
VERTEX
  8
0
 10
929.025364
 20
1262.384886
 42
0.034392
  0
VERTEX
  8
0
 10
927.566704
 20
1260.265385
 42
0.033716
  0
VERTEX
  8
0
 10
926.444261
 20
1258.037000
 42
0.362544
  0
VERTEX
  8
0
 10
926.718392
 20
1257.139420
 42
-0.024940
  0
VERTEX
  8
0
 10
927.462203
 20
1256.598643
 42
-0.000095
  0
VERTEX
  8
0
 10
935.697521
 20
1249.956755
 42
-0.000493
  0
VERTEX
  8
0
 10
945.025173
 20
1242.415758
 42
-0.000310
  0
VERTEX
  8
0
 10
955.911461
 20
1233.585702
 42
0.000000
  0
VERTEX
  8
0
 10
984.125948
 20
1210.671403
 42
0.000000
  0
VERTEX
  8
0
 10
981.812974
 20
1208.399106
 42
-0.020678
  0
VERTEX
  8
0
 10
975.480145
 20
1202.672431
 42
-0.000022
  0
VERTEX
  8
0
 10
833.009543
 20
1084.177434
 42
-0.000003
  0
VERTEX
  8
0
 10
687.768666
 20
963.390596
 42
-0.170854
  0
VERTEX
  8
0
 10
686.750000
 20
963.012638
 42
-0.414240
  0
VERTEX
  8
0
 10
686.442523
 20
963.309951
 42
-0.000243
  0
VERTEX
  8
0
 10
686.219238
 20
977.030275
 42
-0.002456
  0
VERTEX
  8
0
 10
686.051638
 20
992.441123
 42
-0.001472
  0
VERTEX
  8
0
 10
685.996342
 20
1010.750000
 42
0.001217
  0
VERTEX
  8
0
 10
685.947858
 20
1030.060186
 42
0.001376
  0
VERTEX
  8
0
 10
685.805190
 20
1048.595060
 42
0.001254
  0
VERTEX
  8
0
 10
685.601013
 20
1064.352789
 42
0.007564
  0
VERTEX
  8
0
 10
685.350750
 20
1072.531054
 42
0.000000
  0
VERTEX
  8
0
 10
684.708815
 20
1086.562108
 42
0.000000
  0
VERTEX
  8
0
 10
662.604408
 20
1086.290304
 42
-0.001323
  0
VERTEX
  8
0
 10
647.459098
 20
1086.144163
 42
-0.000066
  0
VERTEX
  8
0
 10
597.936920
 20
1085.803978
 42
-0.000107
  0
VERTEX
  8
0
 10
539.081877
 20
1085.420067
 42
-0.000077
  0
VERTEX
  8
0
 10
473.500000
 20
1085.016409
 42
0.000136
  0
VERTEX
  8
0
 10
404.741796
 20
1084.585141
 42
0.000137
  0
VERTEX
  8
0
 10
336.242188
 20
1084.118057
 42
0.000134
  0
VERTEX
  8
0
 10
276.604951
 20
1083.679073
 42
0.000560
  0
VERTEX
  8
0
 10
240.750000
 20
1083.365377
 42
0.000000
  0
VERTEX
  8
0
 10
175.000000
 20
1082.716433
 42
0.000000
  0
VERTEX
  8
0
 10
175.000000
 20
1079.241254
 42
0.000000
  0
VERTEX
  8
0
 10
175.000000
 20
1075.766074
 42
0.000000
  0
VERTEX
  8
0
 10
278.341827
 20
1076.510908
 42
0.000000
  0
VERTEX
  8
0
 10
381.683654
 20
1077.255742
 42
0.000000
  0
VERTEX
  8
0
 10
382.330871
 20
1027.377871
 42
-0.001004
  0
VERTEX
  8
0
 10
383.319204
 20
937.270070
 42
-0.000465
  0
VERTEX
  8
0
 10
384.259467
 20
820.186536
 42
-0.000009
  0
VERTEX
  8
0
 10
385.171105
 20
691.481355
 42
-0.200749
  0
VERTEX
  8
0
 10
384.723720
 20
690.390387
 42
-0.200763
  0
VERTEX
  8
0
 10
384.100432
 20
690.134808
 42
-0.000029
  0
VERTEX
  8
0
 10
343.653163
 20
690.425118
 42
-0.000717
  0
VERTEX
  8
0
 10
298.868873
 20
690.813391
 42
-0.000433
  0
VERTEX
  8
0
 10
245.796041
 20
691.395602
 42
0.000097
  0
VERTEX
  8
0
 10
192.021712
 20
692.021670
 42
0.000144
  0
VERTEX
  8
0
 10
144.966649
 20
692.546863
 42
0.000060
  0
VERTEX
  8
0
 10
104.676564
 20
692.980077
 42
0.003035
  0
VERTEX
  8
0
 10
96.750000
 20
693.016228
 42
0.000000
  0
VERTEX
  8
0
 10
86.000000
 20
693.000000
 42
0.000000
  0
VERTEX
  8
0
 10
86.000000
 20
689.500000
 42
0.000000
  0
VERTEX
  8
0
 10
86.000000
 20
686.000000
 42
0.000000
  0
VERTEX
  8
0
 10
96.250000
 20
686.017885
 42
-0.003608
  0
VERTEX
  8
0
 10
145.374013
 20
685.749138
 42
-0.000407
  0
VERTEX
  8
0
 10
256.790923
 20
684.244940
 42
-0.000009
  0
VERTEX
  8
0
 10
384.074412
 20
682.420663
 42
-0.308510
  0
VERTEX
  8
0
 10
384.833333
 20
681.887022
 42
0.222791
  0
VERTEX
  8
0
 10
385.187023
 20
681.542057
 42
0.031256
  0
VERTEX
  8
0
 10
386.196290
 20
681.260563
 42
0.030772
  0
VERTEX
  8
0
 10
387.510542
 20
681.064647
 42
0.021617
  0
VERTEX
  8
0
 10
389.005100
 20
681.000000
 42
0.000000
  0
VERTEX
  8
0
 10
392.843533
 20
681.000000
 42
0.000000
  0
VERTEX
  8
0
 10
392.367557
 20
718.750000
 42
-0.000898
  0
VERTEX
  8
0
 10
391.420680
 20
806.323459
 42
-0.000308
  0
VERTEX
  8
0
 10
390.354513
 20
933.234217
 42
-0.000004
  0
VERTEX
  8
0
 10
389.243407
 20
1076.093130
 42
-0.200932
  0
VERTEX
  8
0
 10
389.579017
 20
1076.912350
 42
-0.197260
  0
VERTEX
  8
0
 10
390.890016
 20
1077.460273
 42
-0.000010
  0
VERTEX
  8
0
 10
533.593542
 20
1078.364802
 42
-0.000010
  0
VERTEX
  8
0
 10
676.306586
 20
1079.263618
 42
-0.200544
  0
VERTEX
  8
0
 10
677.601212
 20
1078.732122
 42
-0.196673
  0
VERTEX
  8
0
 10
678.291100
 20
1077.086681
 42
-0.000009
  0
VERTEX
  8
0
 10
679.946916
 20
884.632389
 42
-0.000017
  0
VERTEX
  8
0
 10
681.585672
 20
693.025119
 42
-0.094680
  0
VERTEX
  8
0
 10
680.943198
 20
689.500000
 42
-0.092610
  0
VERTEX
  8
0
 10
680.036004
 20
688.032759
 42
-0.000012
  0
VERTEX
  8
0
 10
606.046180
 20
606.752803
 42
-0.000322
  0
VERTEX
  8
0
 10
524.166327
 20
516.925724
 42
-0.000194
  0
VERTEX
  8
0
 10
427.060954
 20
410.615924
 42
0.000053
  0
VERTEX
  8
0
 10
329.965933
 20
304.377825
 42
0.000088
  0
VERTEX
  8
0
 10
248.126887
 20
214.781633
 42
0.000002
  0
VERTEX
  8
0
 10
173.914863
 20
133.506157
 42
0.046640
  0
VERTEX
  8
0
 10
173.352868
 20
132.761936
 42
0.215334
  0
VERTEX
  8
0
 10
173.283204
 20
132.226516
 42
0.049633
  0
VERTEX
  8
0
 10
173.641296
 20
131.365155
 42
0.042638
  0
VERTEX
  8
0
 10
174.292481
 20
130.367757
 42
0.030453
  0
VERTEX
  8
0
 10
175.176515
 20
129.368939
 42
0.000000
  0
VERTEX
  8
0
 10
177.599601
 20
126.945854
 42
0.000000
  0
VERTEX
  8
0
 10
285.498179
 20
245.058251
 42
-0.000306
  0
VERTEX
  8
0
 10
349.968343
 20
315.544561
 42
-0.003177
  0
VERTEX
  8
0
 10
376.695604
 20
344.360215
 42
-0.002038
  0
VERTEX
  8
0
 10
393.192991
 20
361.778685
 42
-0.259822
  0
VERTEX
  8
0
 10
395.948379
 20
362.631243
 42
-0.022846
  0
VERTEX
  8
0
 10
403.852728
 20
360.579107
 42
-0.000009
  0
VERTEX
  8
0
 10
678.759365
 20
275.626446
 42
-0.000006
  0
VERTEX
  8
0
 10
954.952928
 20
190.266847
 42
-0.034790
  0
VERTEX
  8
0
 10
959.983727
 20
188.319578
 42
0.021713
  0
VERTEX
  8
0
 10
961.537866
 20
187.670831
 42
0.015418
  0
VERTEX
  8
0
 10
963.330140
 20
187.074526
 42
0.015605
  0
VERTEX
  8
0
 10
965.079593
 20
186.610732
 42
0.031641
  0
VERTEX
  8
0
 10
966.483727
 20
186.377389
 42
-0.048886
  0
VERTEX
  8
0
 10
968.844860
 20
185.900947
 42
-0.000096
  0
VERTEX
  8
0
 10
1005.626470
 20
174.643866
 42
-0.000690
  0
VERTEX
  8
0
 10
1046.978007
 20
161.917019
 42
-0.000428
  0
VERTEX
  8
0
 10
1095.500000
 20
146.864520
 42
0.000000
  0
VERTEX
  8
0
 10
1221.500000
 20
107.658605
 42
0.000000
  0
VERTEX
  8
0
 10
1236.000000
 20
107.876499
 42
0.003066
  0
VERTEX
  8
0
 10
1283.830493
 20
108.888639
 42
0.000039
  0
VERTEX
  8
0
 10
1587.796186
 20
117.209304
 42
0.000001
  0
VERTEX
  8
0
 10
1913.012749
 20
126.137317
 42
0.191789
  0
VERTEX
  8
0
 10
1913.816627
 20
126.483294
 42
0.225485
  0
VERTEX
  8
0
 10
1914.042977
 20
127.119438
 42
0.000001
  0
VERTEX
  8
0
 10
1882.367490
 20
437.480957
 42
0.000043
  0
VERTEX
  8
0
 10
1853.059973
 20
724.395321
 42
0.002377
  0
VERTEX
  8
0
 10
1847.322121
 20
778.000000
 42
-0.020180
  0
VERTEX
  8
0
 10
1847.120782
 20
780.829654
 42
-0.127016
  0
VERTEX
  8
0
 10
1847.436784
 20
782.229624
 42
-0.120627
  0
VERTEX
  8
0
 10
1848.397363
 20
783.336459
 42
-0.017458
  0
VERTEX
  8
0
 10
1850.913245
 20
784.988448
 42
0.022126
  0
VERTEX
  8
0
 10
1852.445771
 20
786.015337
 42
0.034498
  0
VERTEX
  8
0
 10
1853.657138
 20
787.043058
 42
0.037709
  0
VERTEX
  8
0
 10
1854.453959
 20
787.946298
 42
0.284610
  0
VERTEX
  8
0
 10
1854.504494
 20
788.488448
 42
-0.012799
  0
VERTEX
  8
0
 10
1854.270209
 20
788.991288
 42
-0.005153
  0
VERTEX
  8
0
 10
1853.975002
 20
789.689300
 42
-0.005095
  0
VERTEX
  8
0
 10
1853.672357
 20
790.447872
 42
-0.006431
  0
VERTEX
  8
0
 10
1853.408600
 20
791.155977
 42
0.128943
  0
VERTEX
  8
0
 10
1852.942616
 20
791.836851
 42
0.048208
  0
VERTEX
  8
0
 10
1851.991294
 20
792.512871
 42
0.043727
  0
VERTEX
  8
0
 10
1850.760688
 20
793.083328
 42
0.040328
  0
VERTEX
  8
0
 10
1849.416015
 20
793.449778
 42
-0.035525
  0
VERTEX
  8
0
 10
1847.821111
 20
793.868027
 42
-0.076741
  0
VERTEX
  8
0
 10
1846.699083
 20
794.453118
 42
-0.096377
  0
VERTEX
  8
0
 10
1845.965441
 20
795.248905
 42
-0.085959
  0
VERTEX
  8
0
 10
1845.546725
 20
796.293801
 42
-0.026644
  0
VERTEX
  8
0
 10
1845.261023
 20
798.106101
 42
-0.000008
  0
VERTEX
  8
0
 10
1837.706546
 20
871.142554
 42
-0.000149
  0
VERTEX
  8
0
 10
1829.350381
 20
952.178488
 42
-0.000090
  0
VERTEX
  8
0
 10
1819.515898
 20
1048.000000
 42
0.000029
  0
VERTEX
  8
0
 10
1800.699790
 20
1231.556428
 42
0.000808
  0
VERTEX
  8
0
 10
1795.733092
 20
1279.221851
 42
0.000302
  0
VERTEX
  8
0
 10
1792.846651
 20
1306.339077
 42
0.452835
  0
VERTEX
  8
0
 10
1792.121169
 20
1306.850168
 42
-0.015704
  0
VERTEX
  8
0
 10
1791.736344
 20
1306.770041
 42
-0.001853
  0
VERTEX
  8
0
 10
1790.874656
 20
1306.621976
 42
-0.002216
  0
VERTEX
  8
0
 10
1789.848471
 20
1306.454229
 42
-0.001814
  0
SEQEND
  0
POLYLINE
  8
0
 66
1
 70
1
  0
VERTEX
  8
0
 10
1146.816223
 20
1078.857654
 42
-0.000053
  0
VERTEX
  8
0
 10
1206.603929
 20
1030.404329
 42
-0.000087
  0
VERTEX
  8
0
 10
1257.158973
 20
989.409863
 42
-0.000005
  0
VERTEX
  8
0
 10
1302.717009
 20
952.453490
 42
-0.015543
  0
VERTEX
  8
0
 10
1303.831345
 20
951.490595
 42
-0.319805
  0
VERTEX
  8
0
 10
1304.189642
 20
949.793251
 42
-0.000803
  0
VERTEX
  8
0
 10
1293.808351
 20
926.078139
 42
-0.002644
  0
VERTEX
  8
0
 10
1278.240514
 20
891.171866
 42
-0.000427
  0
VERTEX
  8
0
 10
1247.506883
 20
823.382941
 42
-0.000221
  0
VERTEX
  8
0
 10
1225.351007
 20
774.681799
 42
-0.000365
  0
VERTEX
  8
0
 10
1206.586835
 20
733.564044
 42
-0.000016
  0
VERTEX
  8
0
 10
1189.614034
 20
696.446692
 42
-0.084926
  0
VERTEX
  8
0
 10
1189.168067
 20
695.792529
 42
-0.201346
  0
VERTEX
  8
0
 10
1187.987634
 20
695.285626
 42
-0.000004
  0
VERTEX
  8
0
 10
988.416612
 20
693.644799
 42
-0.000271
  0
VERTEX
  8
0
 10
814.484438
 20
692.310457
 42
-0.001783
  0
VERTEX
  8
0
 10
727.400767
 20
692.000000
 42
0.000000
  0
VERTEX
  8
0
 10
689.295574
 20
692.000000
 42
0.000000
  0
VERTEX
  8
0
 10
688.652297
 20
726.750000
 42
-0.001867
  0
VERTEX
  8
0
 10
688.366911
 20
746.063720
 42
-0.000403
  0
VERTEX
  8
0
 10
688.024737
 20
779.492188
 42
-0.000420
  0
VERTEX
  8
0
 10
687.692256
 20
818.197995
 42
-0.000401
  0
VERTEX
  8
0
 10
687.419249
 20
857.500000
 42
0.000000
  0
VERTEX
  8
0
 10
686.829478
 20
953.500000
 42
0.000000
  0
VERTEX
  8
0
 10
838.039122
 20
1079.250000
 42
-0.000287
  0
VERTEX
  8
0
 10
896.086236
 20
1127.467228
 42
-0.000476
  0
VERTEX
  8
0
 10
945.107599
 20
1168.060937
 42
-0.000014
  0
VERTEX
  8
0
 10
989.507255
 20
1204.754182
 42
-0.174392
  0
VERTEX
  8
0
 10
990.190606
 20
1205.000000
 42
-0.171131
  0
VERTEX
  8
0
 10
990.877134
 20
1204.757939
 42
-0.000014
  0
VERTEX
  8
0
 10
1036.587890
 20
1167.945686
 42
-0.000460
  0
VERTEX
  8
0
 10
1087.053543
 20
1127.225336
 42
-0.000277
  0
SEQEND
  0
POLYLINE
  8
0
 66
1
 70
1
  0
VERTEX
  8
0
 10
1577.500000
 20
867.993017
 42
-0.000185
  0
VERTEX
  8
0
 10
1723.704799
 20
823.861446
 42
-0.001426
  0
VERTEX
  8
0
 10
1792.107949
 20
802.973344
 42
-0.000296
  0
VERTEX
  8
0
 10
1837.432210
 20
788.961956
 42
-0.296571
  0
VERTEX
  8
0
 10
1838.724570
 20
787.408072
 42
-0.285471
  0
VERTEX
  8
0
 10
1837.905654
 20
785.664032
 42
-0.000083
  0
VERTEX
  8
0
 10
1767.890968
 20
740.242748
 42
-0.000867
  0
VERTEX
  8
0
 10
1669.044122
 20
676.383480
 42
-0.000157
  0
VERTEX
  8
0
 10
1485.076578
 20
558.065958
 42
0.000192
  0
VERTEX
  8
0
 10
1319.376177
 20
451.480233
 42
0.000690
  0
VERTEX
  8
0
 10
1213.730493
 20
383.260425
 42
0.000033
  0
VERTEX
  8
0
 10
1132.134487
 20
330.402979
 42
0.354388
  0
VERTEX
  8
0
 10
1131.747726
 20
329.215033
 42
-0.094793
  0
VERTEX
  8
0
 10
1131.855779
 20
328.612294
 42
-0.080767
  0
VERTEX
  8
0
 10
1131.744546
 20
327.975073
 42
-0.080160
  0
VERTEX
  8
0
 10
1131.435785
 20
327.401714
 42
-0.091066
  0
VERTEX
  8
0
 10
1130.973396
 20
326.983558
 42
0.364590
  0
VERTEX
  8
0
 10
1130.564071
 20
325.740035
 42
0.000667
  0
VERTEX
  8
0
 10
1139.255609
 20
304.140228
 42
0.002782
  0
VERTEX
  8
0
 10
1151.611437
 20
274.035333
 42
0.000597
  0
VERTEX
  8
0
 10
1173.388892
 20
221.979029
 42
-0.000358
  0
VERTEX
  8
0
 10
1190.134626
 20
182.004242
 42
-0.000595
  0
VERTEX
  8
0
 10
1204.178950
 20
148.298136
 42
-0.000015
  0
VERTEX
  8
0
 10
1216.854886
 20
117.771220
 42
-0.303577
  0
VERTEX
  8
0
 10
1216.793064
 20
117.459730
 42
-0.277617
  0
VERTEX
  8
0
 10
1216.310565
 20
117.339708
 42
-0.000002
  0
VERTEX
  8
0
 10
1093.188731
 20
155.128739
 42
-0.000005
  0
VERTEX
  8
0
 10
970.423372
 20
192.810347
 42
-0.098873
  0
VERTEX
  8
0
 10
969.275053
 20
193.430134
 42
-0.338264
  0
VERTEX
  8
0
 10
969.232102
 20
193.616593
 42
-0.000000
  0
VERTEX
  8
0
 10
1018.915639
 20
303.113427
 42
-0.000108
  0
VERTEX
  8
0
 10
1073.589992
 20
423.540302
 42
-0.000064
  0
VERTEX
  8
0
 10
1138.580163
 20
566.558280
 42
0.000009
  0
VERTEX
  8
0
 10
1203.717747
 20
709.858583
 42
0.000015
  0
VERTEX
  8
0
 10
1258.875271
 20
831.218762
 42
0.000001
  0
VERTEX
  8
0
 10
1308.457605
 20
940.321504
 42
0.002100
  0
VERTEX
  8
0
 10
1310.031941
 20
943.824741
 42
-0.014753
  0
VERTEX
  8
0
 10
1311.187347
 20
946.231015
 42
-0.096922
  0
VERTEX
  8
0
 10
1312.014409
 20
947.274097
 42
-0.178238
  0
VERTEX
  8
0
 10
1312.932759
 20
947.613893
 42
-0.079228
  0
VERTEX
  8
0
 10
1314.226831
 20
947.409686
 42
0.005415
  0
VERTEX
  8
0
 10
1316.085350
 20
946.827017
 42
0.000002
  0
VERTEX
  8
0
 10
1392.501007
 20
923.775873
 42
0.000030
  0
VERTEX
  8
0
 10
1477.264201
 20
898.212418
 42
0.000018
  0
SEQEND
  0
POLYLINE
  8
0
 66
1
 70
1
  0
VERTEX
  8
0
 10
1873.592147
 20
453.268677
 42
-0.000202
  0
VERTEX
  8
0
 10
1886.115578
 20
330.815912
 42
-0.000336
  0
VERTEX
  8
0
 10
1896.556786
 20
227.626350
 42
-0.000006
  0
VERTEX
  8
0
 10
1905.962631
 20
134.030456
 42
-0.225075
  0
VERTEX
  8
0
 10
1905.740201
 20
133.406867
 42
-0.191886
  0
VERTEX
  8
0
 10
1904.391133
 20
132.826550
 42
-0.000002
  0
VERTEX
  8
0
 10
1575.274232
 20
123.916042
 42
-0.000025
  0
VERTEX
  8
0
 10
1254.931117
 20
115.260652
 42
-0.013318
  0
VERTEX
  8
0
 10
1235.157193
 20
115.254170
 42
0.000000
  0
VERTEX
  8
0
 10
1225.814387
 20
115.500000
 42
0.000000
  0
VERTEX
  8
0
 10
1182.372135
 20
219.000000
 42
-0.000257
  0
VERTEX
  8
0
 10
1165.680637
 20
258.824416
 42
-0.000417
  0
VERTEX
  8
0
 10
1151.542666
 20
292.684375
 42
-0.000047
  0
VERTEX
  8
0
 10
1138.946309
 20
322.931180
 42
-0.036798
  0
VERTEX
  8
0
 10
1138.424763
 20
324.500000
 42
-0.320716
  0
VERTEX
  8
0
 10
1139.200627
 20
326.480846
 42
-0.000153
  0
VERTEX
  8
0
 10
1200.149808
 20
366.106002
 42
-0.001038
  0
VERTEX
  8
0
 10
1291.724063
 20
425.331791
 42
-0.000133
  0
VERTEX
  8
0
 10
1488.709820
 20
552.079703
 42
-0.000091
  0
VERTEX
  8
0
 10
1714.346205
 20
697.119556
 42
-0.001425
  0
VERTEX
  8
0
 10
1791.751969
 20
746.545086
 42
-0.000552
  0
VERTEX
  8
0
 10
1838.116567
 20
775.892568
 42
-0.509444
  0
VERTEX
  8
0
 10
1840.156803
 20
775.079703
 42
-0.036452
  0
VERTEX
  8
0
 10
1840.536763
 20
772.948568
 42
-0.000010
  0
VERTEX
  8
0
 10
1850.249367
 20
679.483587
 42
-0.000187
  0
VERTEX
  8
0
 10
1860.976931
 20
575.854138
 42
-0.000114
  0
SEQEND
  0
POLYLINE
  8
0
 66
1
 70
1
  0
VERTEX
  8
0
 10
1183.540809
 20
682.750000
 42
-0.001645
  0
VERTEX
  8
0
 10
1160.300807
 20
631.266700
 42
-0.000054
  0
VERTEX
  8
0
 10
1066.349766
 20
425.009491
 42
-0.000001
  0
VERTEX
  8
0
 10
962.779398
 20
197.700199
 42
-0.089161
  0
VERTEX
  8
0
 10
962.066451
 20
196.670033
 42
-0.278131
  0
VERTEX
  8
0
 10
960.932389
 20
196.386478
 42
-0.000002
  0
VERTEX
  8
0
 10
683.796648
 20
281.368833
 42
-0.000020
  0
VERTEX
  8
0
 10
411.202494
 20
364.972050
 42
-0.026802
  0
VERTEX
  8
0
 10
400.815148
 20
368.778083
 42
-0.513272
  0
VERTEX
  8
0
 10
400.548556
 20
369.984010
 42
-0.000301
  0
VERTEX
  8
0
 10
428.644183
 20
401.287259
 42
-0.001720
  0
VERTEX
  8
0
 10
468.690622
 20
445.544536
 42
-0.000320
  0
VERTEX
  8
0
 10
542.546779
 20
526.500000
 42
-0.000524
  0
VERTEX
  8
0
 10
597.698045
 20
586.747813
 42
-0.000862
  0
VERTEX
  8
0
 10
644.501003
 20
637.592008
 42
-0.000060
  0
VERTEX
  8
0
 10
686.655134
 20
683.216821
 42
-0.130345
  0
VERTEX
  8
0
 10
688.231631
 20
684.217475
 42
-0.074757
  0
VERTEX
  8
0
 10
690.986617
 20
684.653885
 42
-0.000011
  0
VERTEX
  8
0
 10
854.547524
 20
685.936864
 42
-0.000331
  0
VERTEX
  8
0
 10
1011.268071
 20
687.059142
 42
-0.000464
  0
VERTEX
  8
0
 10
1151.194971
 20
687.838853
 42
0.000000
  0
VERTEX
  8
0
 10
1185.889942
 20
688.000000
 42
0.000000
  0
SEQEND
  0
ENDSEC
  0
EOF
